<?xml version="1.0" standalone="no"?>
<!DOCTYPE svg PUBLIC "-//W3C//DTD SVG 20010904//EN"
 "http://www.w3.org/TR/2001/REC-SVG-20010904/DTD/svg10.dtd">
<svg version="1.0" xmlns="http://www.w3.org/2000/svg"
 width="2000.000000pt" height="455.000000pt" viewBox="0 0 2000.000000 455.000000"
 preserveAspectRatio="xMidYMid meet">

<g transform="translate(0.000000,455.000000) scale(0.100000,-0.100000)"
fill="#000000" stroke="none">
<path d="M200 2275 l0 -2225 9800 0 9800 0 0 2225 0 2225 -9800 0 -9800 0 0
-2225z m4235 0 l0 -2010 -2012 -3 -2013 -2 0 2015 0 2015 2013 -2 2012 -3 0
-2010z m2030 866 c148 -31 285 -97 285 -138 0 -17 -76 -195 -98 -230 -8 -13
-20 -23 -27 -23 -8 0 -46 18 -87 39 -108 58 -173 74 -283 69 -81 -3 -101 -8
-159 -37 -93 -48 -176 -137 -225 -243 -54 -115 -66 -174 -65 -308 1 -190 51
-329 158 -436 95 -95 192 -134 334 -134 96 0 179 22 271 71 46 25 81 37 92 34
21 -7 119 -200 119 -233 0 -69 -232 -159 -436 -169 -347 -19 -630 143 -774
442 -128 264 -124 629 11 900 98 199 270 340 479 394 102 27 282 28 405 2z
m8988 -35 c72 -30 117 -114 103 -191 -8 -43 -59 -103 -103 -121 -131 -55 -282
84 -228 212 40 97 136 139 228 100z m730 -95 c15 -12 17 -42 17 -242 l0 -229
112 0 c147 0 148 -1 148 -131 0 -130 1 -129 -146 -129 l-114 0 0 -418 c0 -312
-3 -421 -12 -430 -17 -17 -259 -17 -276 0 -9 9 -12 118 -12 430 l0 418 -69 0
c-92 0 -101 12 -101 130 0 118 9 130 101 130 l69 0 0 223 c0 228 3 246 40 260
31 12 226 2 243 -12z m-8462 -471 c165 -56 285 -179 346 -357 22 -66 26 -96
27 -193 1 -132 -12 -195 -60 -295 -102 -215 -333 -330 -592 -295 -247 33 -423
185 -477 412 -19 81 -19 235 0 317 52 218 233 392 450 431 79 14 234 4 306
-20z m1467 -2 c68 -21 126 -65 162 -124 l21 -34 60 50 c119 99 221 134 373
128 84 -3 110 -9 156 -31 80 -39 125 -80 157 -145 l28 -57 6 -310 c4 -170 9
-370 10 -443 3 -109 1 -135 -11 -142 -8 -5 -70 -10 -136 -10 -100 0 -124 3
-135 16 -10 13 -14 90 -16 353 -2 185 -6 354 -9 376 -11 92 -66 135 -172 135
-110 0 -201 -68 -262 -195 -42 -89 -50 -154 -50 -420 0 -174 -3 -244 -12 -253
-13 -13 -245 -17 -265 -4 -9 5 -13 106 -15 382 -3 364 -4 376 -25 416 -28 52
-72 74 -150 74 -141 0 -258 -115 -297 -292 -9 -38 -17 -161 -21 -313 -4 -146
-11 -255 -17 -262 -7 -9 -48 -13 -139 -13 -115 0 -129 2 -138 19 -7 12 -7 141
0 382 6 200 9 423 6 494 -6 134 2 202 25 216 7 5 57 9 111 9 119 0 131 -8 141
-98 4 -34 11 -64 15 -67 5 -2 16 7 25 20 25 38 129 111 192 134 115 43 261 47
382 9z m2097 7 c74 -21 139 -67 170 -119 15 -25 30 -46 34 -46 4 0 20 14 37
31 46 50 143 108 217 130 55 17 87 20 170 17 120 -4 187 -30 261 -98 81 -75
82 -83 95 -574 7 -292 8 -434 1 -447 -10 -17 -23 -19 -141 -19 -125 0 -130 1
-138 23 -5 12 -12 184 -15 382 -8 399 -10 409 -75 452 -38 26 -117 31 -185 12
-46 -13 -127 -86 -163 -147 -56 -96 -63 -141 -63 -424 0 -159 -4 -267 -10
-279 -10 -17 -22 -19 -138 -19 -86 0 -132 4 -140 12 -9 9 -12 107 -12 378 0
338 -2 368 -20 407 -29 66 -69 85 -161 80 -124 -6 -194 -60 -259 -199 -41 -88
-50 -161 -50 -408 0 -153 -4 -222 -13 -240 -12 -24 -16 -25 -136 -28 -81 -2
-128 1 -137 9 -11 9 -13 99 -8 543 7 625 -7 566 138 566 115 0 132 -10 141
-82 12 -97 11 -96 69 -41 68 66 104 90 173 114 113 39 248 45 358 14z m5997
14 c169 -36 305 -174 362 -368 21 -73 20 -88 -8 -107 -14 -8 -159 -64 -323
-124 -336 -122 -393 -145 -393 -159 0 -5 20 -32 45 -59 68 -75 136 -105 255
-110 104 -4 181 14 267 64 72 41 87 35 128 -52 20 -42 35 -86 33 -97 -4 -29
-81 -80 -160 -106 -288 -96 -570 -56 -733 104 -103 101 -155 225 -162 391 -7
135 12 230 64 337 68 136 213 251 356 282 77 17 199 19 269 4z m-2500 -27 c63
-28 134 -95 166 -157 l26 -50 9 -430 c5 -292 5 -437 -2 -452 -10 -22 -15 -23
-140 -23 -119 0 -131 2 -141 19 -6 13 -10 144 -10 358 0 197 -5 357 -11 383
-19 83 -76 120 -181 120 -108 -1 -184 -54 -243 -171 -45 -89 -55 -161 -55
-427 0 -148 -4 -251 -10 -263 -10 -17 -22 -19 -139 -19 -95 0 -131 3 -140 13
-8 10 -9 162 -4 546 5 438 9 535 20 547 11 10 41 14 111 14 128 0 139 -7 148
-100 3 -39 8 -70 11 -70 2 0 28 25 58 55 100 100 202 136 370 131 86 -2 120
-7 157 -24z m-1992 -2 c13 -8 16 -66 20 -387 6 -431 4 -424 87 -464 39 -20 64
-24 133 -24 75 0 91 4 138 30 67 37 117 91 153 169 43 91 49 145 49 412 0 212
2 245 17 259 13 14 35 16 135 13 84 -2 121 -7 127 -16 13 -21 22 -1074 9
-1089 -16 -19 -231 -18 -247 1 -7 8 -16 42 -21 76 -5 34 -11 65 -14 68 -3 3
-27 -15 -52 -41 -94 -92 -232 -140 -399 -140 -214 1 -369 99 -401 252 -18 87
-6 857 13 877 17 16 228 20 253 4z m2720 -10 c19 -19 20 -33 20 -541 0 -339
-4 -527 -10 -540 -10 -17 -22 -19 -138 -19 -86 0 -132 4 -140 12 -9 9 -12 143
-12 540 0 515 1 529 20 548 18 18 33 20 130 20 97 0 112 -2 130 -20z m2600 10
c10 -5 59 -77 110 -160 50 -83 95 -148 100 -145 4 3 34 67 66 142 32 75 66
145 76 155 15 15 35 18 112 18 52 0 106 -4 120 -10 49 -18 44 -31 -143 -344
-56 -93 -101 -173 -101 -179 0 -12 8 -25 188 -310 94 -150 142 -236 140 -250
-3 -21 -7 -22 -160 -25 -183 -3 -162 -14 -253 134 -33 53 -74 119 -91 146
l-31 50 -15 -24 c-8 -13 -45 -79 -83 -148 -37 -69 -74 -133 -83 -142 -13 -15
-33 -18 -132 -18 -114 0 -140 7 -140 35 0 6 63 115 141 241 190 309 176 276
143 332 -15 26 -57 92 -92 147 -116 179 -192 308 -192 327 0 10 10 23 23 28
30 12 274 12 297 0z"/>
<path d="M2590 3544 c-69 -45 -81 -56 -105 -93 -14 -20 -29 -58 -34 -84 l-8
-47 62 0 c43 0 66 -5 75 -15 17 -21 187 -21 214 0 12 9 42 15 78 15 67 0 69 5
42 83 -18 54 -81 121 -130 139 -19 6 -34 15 -34 18 0 4 -28 7 -62 6 -48 0 -71
-5 -98 -22z"/>
<path d="M2480 3275 c0 -38 35 -99 76 -133 121 -100 306 -32 339 126 l7 32
-44 0 c-24 0 -52 -7 -62 -15 -28 -21 -199 -21 -216 0 -8 9 -30 15 -56 15 -40
0 -44 -2 -44 -25z"/>
<path d="M1690 2205 l0 -1005 130 0 130 0 0 1005 0 1005 -130 0 -130 0 0
-1005z m201 876 c47 -47 36 -121 -23 -155 -56 -34 -131 3 -144 70 -17 93 99
153 167 85z m0 -790 c63 -64 16 -171 -75 -171 -38 0 -86 48 -93 92 -5 33 -2
41 30 73 46 46 95 49 138 6z m-28 -772 c63 -32 77 -111 28 -160 -43 -43 -92
-40 -138 6 -32 32 -35 40 -30 73 11 69 83 110 140 81z"/>
<path d="M1770 3010 c0 -18 7 -20 55 -20 48 0 55 2 55 20 0 18 -7 20 -55 20
-48 0 -55 -2 -55 -20z"/>
<path d="M1800 2225 c0 -48 2 -55 20 -55 18 0 20 7 20 55 0 48 -2 55 -20 55
-18 0 -20 -7 -20 -55z"/>
<path d="M1800 1425 c-30 -31 -32 -37 -19 -50 13 -14 19 -11 48 19 21 22 31
41 28 50 -9 23 -19 20 -57 -19z"/>
<path d="M2595 2936 c-159 -74 -289 -357 -335 -730 -6 -50 -11 -167 -11 -260
0 -308 63 -892 99 -928 28 -28 48 29 136 392 73 299 115 427 158 476 36 41 50
42 83 7 39 -43 82 -166 152 -443 73 -289 95 -366 118 -411 15 -28 19 -30 31
-17 42 42 104 589 104 919 0 392 -106 770 -262 931 -85 88 -177 109 -273 64z
m475 -891 l0 -55 -35 0 -35 0 0 -49 c0 -26 -5 -62 -11 -80 -11 -30 -13 -31
-69 -31 -72 0 -81 10 -88 95 l-5 65 -137 0 -138 0 5 -39 c6 -41 -12 -111 -31
-123 -21 -14 -123 -9 -136 7 -7 8 -15 47 -18 85 -5 69 -5 70 -33 70 -28 0 -29
1 -29 55 l0 55 380 0 380 0 0 -55z"/>
<path d="M7470 2311 c-71 -15 -146 -75 -183 -148 -65 -125 -47 -310 39 -412
56 -65 104 -86 200 -86 72 0 86 3 130 30 54 34 107 104 126 168 7 23 13 83 13
132 -1 77 -5 99 -28 150 -32 68 -76 119 -127 145 -42 21 -122 31 -170 21z"/>
<path d="M17067 2314 c-95 -29 -171 -141 -184 -271 l-6 -53 144 51 c79 27 190
66 246 86 l102 35 -15 30 c-29 55 -97 114 -146 126 -59 15 -81 14 -141 -4z"/>
</g>
</svg>
